<mxfile host="app.diagrams.net" modified="2023-06-25T23:08:31.901Z" agent="Mozilla/5.0 (Windows NT 10.0; Win64; x64) AppleWebKit/537.36 (KHTML, like Gecko) Chrome/114.0.0.0 Safari/537.36" etag="XkhHXmGEbq620UzY_rE6" version="21.5.0" type="device">
  <diagram name="PÃ¡gina-1" id="2C6pVnh8TLemDda-iHzf">
    <mxGraphModel dx="4168" dy="1360" grid="1" gridSize="10" guides="1" tooltips="1" connect="1" arrows="1" fold="1" page="1" pageScale="1" pageWidth="827" pageHeight="1169" math="0" shadow="0">
      <root>
        <mxCell id="0" />
        <mxCell id="1" parent="0" />
        <mxCell id="7BrYY2v-CXimhR1OL_HL-140" style="edgeStyle=orthogonalEdgeStyle;rounded=0;orthogonalLoop=1;jettySize=auto;html=1;entryX=1;entryY=0.75;entryDx=0;entryDy=0;" edge="1" parent="1" source="FMmyktnMpK6uSZ23YpWx-7" target="7BrYY2v-CXimhR1OL_HL-137">
          <mxGeometry relative="1" as="geometry" />
        </mxCell>
        <mxCell id="7BrYY2v-CXimhR1OL_HL-141" value="*" style="edgeLabel;html=1;align=center;verticalAlign=middle;resizable=0;points=[];" vertex="1" connectable="0" parent="7BrYY2v-CXimhR1OL_HL-140">
          <mxGeometry x="-0.6715" y="-3" relative="1" as="geometry">
            <mxPoint x="14" y="20" as="offset" />
          </mxGeometry>
        </mxCell>
        <mxCell id="7BrYY2v-CXimhR1OL_HL-142" value="1" style="edgeLabel;html=1;align=center;verticalAlign=middle;resizable=0;points=[];" vertex="1" connectable="0" parent="7BrYY2v-CXimhR1OL_HL-140">
          <mxGeometry x="0.6631" y="-1" relative="1" as="geometry">
            <mxPoint y="-12" as="offset" />
          </mxGeometry>
        </mxCell>
        <mxCell id="7BrYY2v-CXimhR1OL_HL-182" style="edgeStyle=orthogonalEdgeStyle;rounded=0;orthogonalLoop=1;jettySize=auto;html=1;entryX=1;entryY=0.75;entryDx=0;entryDy=0;" edge="1" parent="1" source="FMmyktnMpK6uSZ23YpWx-7" target="7BrYY2v-CXimhR1OL_HL-53">
          <mxGeometry relative="1" as="geometry">
            <Array as="points">
              <mxPoint x="260" y="1788" />
            </Array>
          </mxGeometry>
        </mxCell>
        <mxCell id="7BrYY2v-CXimhR1OL_HL-183" value="1" style="edgeLabel;html=1;align=center;verticalAlign=middle;resizable=0;points=[];" vertex="1" connectable="0" parent="7BrYY2v-CXimhR1OL_HL-182">
          <mxGeometry x="-0.9546" y="2" relative="1" as="geometry">
            <mxPoint x="-22" y="1" as="offset" />
          </mxGeometry>
        </mxCell>
        <mxCell id="7BrYY2v-CXimhR1OL_HL-185" value="1" style="edgeLabel;html=1;align=center;verticalAlign=middle;resizable=0;points=[];" vertex="1" connectable="0" parent="7BrYY2v-CXimhR1OL_HL-182">
          <mxGeometry x="0.9102" y="1" relative="1" as="geometry">
            <mxPoint x="-9" y="-19" as="offset" />
          </mxGeometry>
        </mxCell>
        <mxCell id="7BrYY2v-CXimhR1OL_HL-186" style="edgeStyle=orthogonalEdgeStyle;rounded=0;orthogonalLoop=1;jettySize=auto;html=1;entryX=0;entryY=0.5;entryDx=0;entryDy=0;endArrow=none;endFill=0;startArrow=classic;startFill=1;" edge="1" parent="1" source="FMmyktnMpK6uSZ23YpWx-7" target="7BrYY2v-CXimhR1OL_HL-117">
          <mxGeometry relative="1" as="geometry">
            <mxPoint x="500" y="1420" as="targetPoint" />
            <Array as="points">
              <mxPoint x="410" y="1421" />
              <mxPoint x="410" y="1421" />
            </Array>
          </mxGeometry>
        </mxCell>
        <mxCell id="7BrYY2v-CXimhR1OL_HL-187" value="1" style="edgeLabel;html=1;align=center;verticalAlign=middle;resizable=0;points=[];" vertex="1" connectable="0" parent="7BrYY2v-CXimhR1OL_HL-186">
          <mxGeometry x="-0.8" y="-1" relative="1" as="geometry">
            <mxPoint x="5" y="-11" as="offset" />
          </mxGeometry>
        </mxCell>
        <mxCell id="7BrYY2v-CXimhR1OL_HL-188" value="*" style="edgeLabel;html=1;align=center;verticalAlign=middle;resizable=0;points=[];" vertex="1" connectable="0" parent="7BrYY2v-CXimhR1OL_HL-186">
          <mxGeometry x="0.68" relative="1" as="geometry">
            <mxPoint x="14" y="9" as="offset" />
          </mxGeometry>
        </mxCell>
        <mxCell id="7BrYY2v-CXimhR1OL_HL-197" style="edgeStyle=orthogonalEdgeStyle;rounded=0;orthogonalLoop=1;jettySize=auto;html=1;entryX=0;entryY=0.75;entryDx=0;entryDy=0;startArrow=classic;startFill=1;endArrow=none;endFill=0;" edge="1" parent="1" source="FMmyktnMpK6uSZ23YpWx-7" target="7BrYY2v-CXimhR1OL_HL-102">
          <mxGeometry relative="1" as="geometry">
            <Array as="points">
              <mxPoint x="435" y="1369" />
            </Array>
          </mxGeometry>
        </mxCell>
        <mxCell id="7BrYY2v-CXimhR1OL_HL-198" value="1" style="edgeLabel;html=1;align=center;verticalAlign=middle;resizable=0;points=[];" vertex="1" connectable="0" parent="7BrYY2v-CXimhR1OL_HL-197">
          <mxGeometry x="-0.8627" y="-1" relative="1" as="geometry">
            <mxPoint x="10" y="-9" as="offset" />
          </mxGeometry>
        </mxCell>
        <mxCell id="7BrYY2v-CXimhR1OL_HL-199" value="*" style="edgeLabel;html=1;align=center;verticalAlign=middle;resizable=0;points=[];" vertex="1" connectable="0" parent="7BrYY2v-CXimhR1OL_HL-197">
          <mxGeometry x="0.6692" y="-2" relative="1" as="geometry">
            <mxPoint x="5" y="-10" as="offset" />
          </mxGeometry>
        </mxCell>
        <mxCell id="7BrYY2v-CXimhR1OL_HL-205" style="edgeStyle=orthogonalEdgeStyle;rounded=0;orthogonalLoop=1;jettySize=auto;html=1;entryX=0;entryY=0.75;entryDx=0;entryDy=0;endArrow=none;endFill=0;startArrow=classic;startFill=1;" edge="1" parent="1" source="FMmyktnMpK6uSZ23YpWx-7" target="7BrYY2v-CXimhR1OL_HL-94">
          <mxGeometry relative="1" as="geometry">
            <Array as="points">
              <mxPoint x="330" y="1132" />
            </Array>
          </mxGeometry>
        </mxCell>
        <mxCell id="7BrYY2v-CXimhR1OL_HL-206" value="*" style="edgeLabel;html=1;align=center;verticalAlign=middle;resizable=0;points=[];" vertex="1" connectable="0" parent="7BrYY2v-CXimhR1OL_HL-205">
          <mxGeometry x="0.9459" y="-2" relative="1" as="geometry">
            <mxPoint x="-5" y="-10" as="offset" />
          </mxGeometry>
        </mxCell>
        <mxCell id="7BrYY2v-CXimhR1OL_HL-207" value="1" style="edgeLabel;html=1;align=center;verticalAlign=middle;resizable=0;points=[];" vertex="1" connectable="0" parent="7BrYY2v-CXimhR1OL_HL-205">
          <mxGeometry x="-0.9337" y="1" relative="1" as="geometry">
            <mxPoint x="11" y="-3" as="offset" />
          </mxGeometry>
        </mxCell>
        <mxCell id="7BrYY2v-CXimhR1OL_HL-214" style="edgeStyle=orthogonalEdgeStyle;rounded=0;orthogonalLoop=1;jettySize=auto;html=1;entryX=0.5;entryY=1;entryDx=0;entryDy=0;" edge="1" parent="1" source="FMmyktnMpK6uSZ23YpWx-7" target="7BrYY2v-CXimhR1OL_HL-99">
          <mxGeometry relative="1" as="geometry" />
        </mxCell>
        <mxCell id="7BrYY2v-CXimhR1OL_HL-215" value="*" style="edgeLabel;html=1;align=center;verticalAlign=middle;resizable=0;points=[];" vertex="1" connectable="0" parent="7BrYY2v-CXimhR1OL_HL-214">
          <mxGeometry x="-0.8763" y="4" relative="1" as="geometry">
            <mxPoint x="14" y="8" as="offset" />
          </mxGeometry>
        </mxCell>
        <mxCell id="7BrYY2v-CXimhR1OL_HL-216" value="*" style="edgeLabel;html=1;align=center;verticalAlign=middle;resizable=0;points=[];" vertex="1" connectable="0" parent="7BrYY2v-CXimhR1OL_HL-214">
          <mxGeometry x="0.8913" y="-1" relative="1" as="geometry">
            <mxPoint x="-11" as="offset" />
          </mxGeometry>
        </mxCell>
        <mxCell id="7BrYY2v-CXimhR1OL_HL-225" style="edgeStyle=orthogonalEdgeStyle;rounded=0;orthogonalLoop=1;jettySize=auto;html=1;entryX=0.25;entryY=0;entryDx=0;entryDy=0;" edge="1" parent="1" source="FMmyktnMpK6uSZ23YpWx-7" target="7BrYY2v-CXimhR1OL_HL-30">
          <mxGeometry relative="1" as="geometry">
            <Array as="points">
              <mxPoint x="343" y="1533" />
            </Array>
          </mxGeometry>
        </mxCell>
        <mxCell id="7BrYY2v-CXimhR1OL_HL-226" value="1" style="edgeLabel;html=1;align=center;verticalAlign=middle;resizable=0;points=[];" vertex="1" connectable="0" parent="7BrYY2v-CXimhR1OL_HL-225">
          <mxGeometry x="-0.8243" relative="1" as="geometry">
            <mxPoint x="-12" y="-1" as="offset" />
          </mxGeometry>
        </mxCell>
        <mxCell id="7BrYY2v-CXimhR1OL_HL-227" value="*" style="edgeLabel;html=1;align=center;verticalAlign=middle;resizable=0;points=[];" vertex="1" connectable="0" parent="7BrYY2v-CXimhR1OL_HL-225">
          <mxGeometry x="0.7699" y="2" relative="1" as="geometry">
            <mxPoint x="6" as="offset" />
          </mxGeometry>
        </mxCell>
        <mxCell id="FMmyktnMpK6uSZ23YpWx-7" value="User" style="swimlane;fontStyle=0;childLayout=stackLayout;horizontal=1;startSize=26;fillColor=#66B2FF;horizontalStack=0;resizeParent=1;resizeParentMax=0;resizeLast=0;collapsible=1;marginBottom=0;whiteSpace=wrap;html=1;strokeColor=#000000;gradientColor=none;swimlaneFillColor=#66B2FF;" parent="1" vertex="1">
          <mxGeometry x="180" y="1350" width="180" height="86" as="geometry" />
        </mxCell>
        <mxCell id="7BrYY2v-CXimhR1OL_HL-61" value="- username: string" style="text;html=1;strokeColor=none;fillColor=none;align=left;verticalAlign=middle;whiteSpace=wrap;rounded=0;" vertex="1" parent="FMmyktnMpK6uSZ23YpWx-7">
          <mxGeometry y="26" width="180" height="30" as="geometry" />
        </mxCell>
        <mxCell id="7BrYY2v-CXimhR1OL_HL-62" value="- password (hashed): string" style="text;html=1;strokeColor=none;fillColor=none;align=left;verticalAlign=middle;whiteSpace=wrap;rounded=0;" vertex="1" parent="FMmyktnMpK6uSZ23YpWx-7">
          <mxGeometry y="56" width="180" height="30" as="geometry" />
        </mxCell>
        <mxCell id="7BrYY2v-CXimhR1OL_HL-195" style="edgeStyle=orthogonalEdgeStyle;rounded=0;orthogonalLoop=1;jettySize=auto;html=1;" edge="1" parent="1" source="7BrYY2v-CXimhR1OL_HL-3" target="7BrYY2v-CXimhR1OL_HL-103">
          <mxGeometry relative="1" as="geometry">
            <Array as="points">
              <mxPoint x="860" y="1420" />
            </Array>
          </mxGeometry>
        </mxCell>
        <mxCell id="7BrYY2v-CXimhR1OL_HL-196" value="1" style="edgeLabel;html=1;align=center;verticalAlign=middle;resizable=0;points=[];" vertex="1" connectable="0" parent="7BrYY2v-CXimhR1OL_HL-195">
          <mxGeometry x="-0.8535" relative="1" as="geometry">
            <mxPoint x="-7" y="-14" as="offset" />
          </mxGeometry>
        </mxCell>
        <mxCell id="7BrYY2v-CXimhR1OL_HL-200" value="*" style="edgeLabel;html=1;align=center;verticalAlign=middle;resizable=0;points=[];" vertex="1" connectable="0" parent="7BrYY2v-CXimhR1OL_HL-195">
          <mxGeometry x="0.8634" y="-1" relative="1" as="geometry">
            <mxPoint x="11" y="-4" as="offset" />
          </mxGeometry>
        </mxCell>
        <mxCell id="7BrYY2v-CXimhR1OL_HL-202" style="edgeStyle=orthogonalEdgeStyle;rounded=0;orthogonalLoop=1;jettySize=auto;html=1;entryX=0.933;entryY=1.033;entryDx=0;entryDy=0;entryPerimeter=0;" edge="1" parent="1" source="7BrYY2v-CXimhR1OL_HL-3" target="7BrYY2v-CXimhR1OL_HL-95">
          <mxGeometry relative="1" as="geometry">
            <mxPoint x="530" y="1180" as="targetPoint" />
            <Array as="points">
              <mxPoint x="530" y="1290" />
              <mxPoint x="530" y="1290" />
            </Array>
          </mxGeometry>
        </mxCell>
        <mxCell id="7BrYY2v-CXimhR1OL_HL-203" value="1" style="edgeLabel;html=1;align=center;verticalAlign=middle;resizable=0;points=[];" vertex="1" connectable="0" parent="7BrYY2v-CXimhR1OL_HL-202">
          <mxGeometry x="-0.7578" relative="1" as="geometry">
            <mxPoint x="10" y="6" as="offset" />
          </mxGeometry>
        </mxCell>
        <mxCell id="7BrYY2v-CXimhR1OL_HL-204" value="*" style="edgeLabel;html=1;align=center;verticalAlign=middle;resizable=0;points=[];" vertex="1" connectable="0" parent="7BrYY2v-CXimhR1OL_HL-202">
          <mxGeometry x="0.6571" y="1" relative="1" as="geometry">
            <mxPoint x="-9" y="-5" as="offset" />
          </mxGeometry>
        </mxCell>
        <mxCell id="7BrYY2v-CXimhR1OL_HL-208" style="edgeStyle=orthogonalEdgeStyle;rounded=0;orthogonalLoop=1;jettySize=auto;html=1;" edge="1" parent="1" source="7BrYY2v-CXimhR1OL_HL-3" target="7BrYY2v-CXimhR1OL_HL-116">
          <mxGeometry relative="1" as="geometry">
            <Array as="points">
              <mxPoint x="805" y="1340" />
            </Array>
          </mxGeometry>
        </mxCell>
        <mxCell id="7BrYY2v-CXimhR1OL_HL-209" value="1" style="edgeLabel;html=1;align=center;verticalAlign=middle;resizable=0;points=[];" vertex="1" connectable="0" parent="7BrYY2v-CXimhR1OL_HL-208">
          <mxGeometry x="-0.8832" y="1" relative="1" as="geometry">
            <mxPoint x="-6" y="11" as="offset" />
          </mxGeometry>
        </mxCell>
        <mxCell id="7BrYY2v-CXimhR1OL_HL-210" value="0..1" style="edgeLabel;html=1;align=center;verticalAlign=middle;resizable=0;points=[];" vertex="1" connectable="0" parent="7BrYY2v-CXimhR1OL_HL-208">
          <mxGeometry x="0.7691" y="-4" relative="1" as="geometry">
            <mxPoint x="11" y="-7" as="offset" />
          </mxGeometry>
        </mxCell>
        <mxCell id="7BrYY2v-CXimhR1OL_HL-211" style="edgeStyle=orthogonalEdgeStyle;rounded=0;orthogonalLoop=1;jettySize=auto;html=1;entryX=0.5;entryY=0;entryDx=0;entryDy=0;" edge="1" parent="1" source="7BrYY2v-CXimhR1OL_HL-3" target="7BrYY2v-CXimhR1OL_HL-10">
          <mxGeometry relative="1" as="geometry">
            <Array as="points">
              <mxPoint x="640" y="730" />
              <mxPoint x="-283" y="730" />
            </Array>
          </mxGeometry>
        </mxCell>
        <mxCell id="7BrYY2v-CXimhR1OL_HL-212" value="*" style="edgeLabel;html=1;align=center;verticalAlign=middle;resizable=0;points=[];" vertex="1" connectable="0" parent="7BrYY2v-CXimhR1OL_HL-211">
          <mxGeometry x="-0.9739" y="4" relative="1" as="geometry">
            <mxPoint x="14" y="2" as="offset" />
          </mxGeometry>
        </mxCell>
        <mxCell id="7BrYY2v-CXimhR1OL_HL-213" value="0..1" style="edgeLabel;html=1;align=center;verticalAlign=middle;resizable=0;points=[];" vertex="1" connectable="0" parent="7BrYY2v-CXimhR1OL_HL-211">
          <mxGeometry x="0.9569" y="2" relative="1" as="geometry">
            <mxPoint x="21" y="15" as="offset" />
          </mxGeometry>
        </mxCell>
        <mxCell id="7BrYY2v-CXimhR1OL_HL-218" style="edgeStyle=orthogonalEdgeStyle;rounded=0;orthogonalLoop=1;jettySize=auto;html=1;entryX=1;entryY=0.5;entryDx=0;entryDy=0;" edge="1" parent="1" source="7BrYY2v-CXimhR1OL_HL-3" target="7BrYY2v-CXimhR1OL_HL-98">
          <mxGeometry relative="1" as="geometry">
            <Array as="points">
              <mxPoint x="595" y="920" />
              <mxPoint x="430" y="920" />
            </Array>
          </mxGeometry>
        </mxCell>
        <mxCell id="7BrYY2v-CXimhR1OL_HL-219" value="*" style="edgeLabel;html=1;align=center;verticalAlign=middle;resizable=0;points=[];" vertex="1" connectable="0" parent="7BrYY2v-CXimhR1OL_HL-218">
          <mxGeometry x="-0.9424" relative="1" as="geometry">
            <mxPoint x="15" y="3" as="offset" />
          </mxGeometry>
        </mxCell>
        <mxCell id="7BrYY2v-CXimhR1OL_HL-220" value="*" style="edgeLabel;html=1;align=center;verticalAlign=middle;resizable=0;points=[];" vertex="1" connectable="0" parent="7BrYY2v-CXimhR1OL_HL-218">
          <mxGeometry x="0.9234" y="-3" relative="1" as="geometry">
            <mxPoint x="-5" y="-8" as="offset" />
          </mxGeometry>
        </mxCell>
        <mxCell id="7BrYY2v-CXimhR1OL_HL-3" value="Donation" style="swimlane;fontStyle=0;childLayout=stackLayout;horizontal=1;startSize=26;fillColor=#66B2FF;horizontalStack=0;resizeParent=1;resizeParentMax=0;resizeLast=0;collapsible=1;marginBottom=0;whiteSpace=wrap;html=1;strokeColor=#000000;gradientColor=none;swimlaneFillColor=#66B2FF;" vertex="1" parent="1">
          <mxGeometry x="510" y="1320" width="170" height="146" as="geometry" />
        </mxCell>
        <mxCell id="7BrYY2v-CXimhR1OL_HL-102" value="- designation: string" style="text;html=1;strokeColor=none;fillColor=none;align=left;verticalAlign=middle;whiteSpace=wrap;rounded=0;" vertex="1" parent="7BrYY2v-CXimhR1OL_HL-3">
          <mxGeometry y="26" width="170" height="30" as="geometry" />
        </mxCell>
        <mxCell id="7BrYY2v-CXimhR1OL_HL-105" value="- description: string" style="text;html=1;strokeColor=none;fillColor=none;align=left;verticalAlign=middle;whiteSpace=wrap;rounded=0;" vertex="1" parent="7BrYY2v-CXimhR1OL_HL-3">
          <mxGeometry y="56" width="170" height="30" as="geometry" />
        </mxCell>
        <mxCell id="7BrYY2v-CXimhR1OL_HL-117" value="- code: string" style="text;html=1;strokeColor=none;fillColor=none;align=left;verticalAlign=middle;whiteSpace=wrap;rounded=0;" vertex="1" parent="7BrYY2v-CXimhR1OL_HL-3">
          <mxGeometry y="86" width="170" height="30" as="geometry" />
        </mxCell>
        <mxCell id="7BrYY2v-CXimhR1OL_HL-118" value="- was donated: boolean" style="text;html=1;strokeColor=none;fillColor=none;align=left;verticalAlign=middle;whiteSpace=wrap;rounded=0;" vertex="1" parent="7BrYY2v-CXimhR1OL_HL-3">
          <mxGeometry y="116" width="170" height="30" as="geometry" />
        </mxCell>
        <mxCell id="7BrYY2v-CXimhR1OL_HL-5" value="Â«EnumerationÂ»&lt;br&gt;Organization State" style="swimlane;fontStyle=0;childLayout=stackLayout;horizontal=1;startSize=40;fillColor=#66B2FF;horizontalStack=0;resizeParent=1;resizeParentMax=0;resizeLast=0;collapsible=1;marginBottom=0;whiteSpace=wrap;html=1;strokeColor=#000000;gradientColor=none;swimlaneFillColor=#66B2FF;" vertex="1" parent="1">
          <mxGeometry x="-398" y="1230" width="130" height="130" as="geometry">
            <mxRectangle x="30" y="60" width="140" height="30" as="alternateBounds" />
          </mxGeometry>
        </mxCell>
        <mxCell id="7BrYY2v-CXimhR1OL_HL-6" value="- PENDING" style="text;html=1;strokeColor=none;fillColor=none;align=left;verticalAlign=middle;whiteSpace=wrap;rounded=0;" vertex="1" parent="7BrYY2v-CXimhR1OL_HL-5">
          <mxGeometry y="40" width="130" height="30" as="geometry" />
        </mxCell>
        <mxCell id="7BrYY2v-CXimhR1OL_HL-7" value="- APPROVED" style="text;html=1;strokeColor=none;fillColor=none;align=left;verticalAlign=middle;whiteSpace=wrap;rounded=0;" vertex="1" parent="7BrYY2v-CXimhR1OL_HL-5">
          <mxGeometry y="70" width="130" height="30" as="geometry" />
        </mxCell>
        <mxCell id="7BrYY2v-CXimhR1OL_HL-8" value="- REJECTED" style="text;html=1;strokeColor=none;fillColor=none;align=left;verticalAlign=middle;whiteSpace=wrap;rounded=0;" vertex="1" parent="7BrYY2v-CXimhR1OL_HL-5">
          <mxGeometry y="100" width="130" height="30" as="geometry" />
        </mxCell>
        <mxCell id="7BrYY2v-CXimhR1OL_HL-229" style="edgeStyle=orthogonalEdgeStyle;rounded=0;orthogonalLoop=1;jettySize=auto;html=1;entryX=0.109;entryY=-0.014;entryDx=0;entryDy=0;entryPerimeter=0;" edge="1" parent="1" source="7BrYY2v-CXimhR1OL_HL-9" target="7BrYY2v-CXimhR1OL_HL-21">
          <mxGeometry relative="1" as="geometry">
            <Array as="points">
              <mxPoint x="805" y="680" />
              <mxPoint x="-671" y="680" />
            </Array>
          </mxGeometry>
        </mxCell>
        <mxCell id="7BrYY2v-CXimhR1OL_HL-230" value="*" style="edgeLabel;html=1;align=center;verticalAlign=middle;resizable=0;points=[];" vertex="1" connectable="0" parent="7BrYY2v-CXimhR1OL_HL-229">
          <mxGeometry x="-0.9874" y="-1" relative="1" as="geometry">
            <mxPoint x="-16" as="offset" />
          </mxGeometry>
        </mxCell>
        <mxCell id="7BrYY2v-CXimhR1OL_HL-231" value="*" style="edgeLabel;html=1;align=center;verticalAlign=middle;resizable=0;points=[];" vertex="1" connectable="0" parent="7BrYY2v-CXimhR1OL_HL-229">
          <mxGeometry x="0.9848" y="-1" relative="1" as="geometry">
            <mxPoint x="-8" as="offset" />
          </mxGeometry>
        </mxCell>
        <mxCell id="7BrYY2v-CXimhR1OL_HL-9" value="Meeting" style="swimlane;fontStyle=0;childLayout=stackLayout;horizontal=1;startSize=26;fillColor=#66B2FF;horizontalStack=0;resizeParent=1;resizeParentMax=0;resizeLast=0;collapsible=1;marginBottom=0;whiteSpace=wrap;html=1;strokeColor=#000000;gradientColor=none;swimlaneFillColor=#66B2FF;" vertex="1" parent="1">
          <mxGeometry x="720" y="1070" width="170" height="86" as="geometry" />
        </mxCell>
        <mxCell id="7BrYY2v-CXimhR1OL_HL-107" value="- meeting date/hour: date" style="text;html=1;strokeColor=none;fillColor=none;align=left;verticalAlign=middle;whiteSpace=wrap;rounded=0;" vertex="1" parent="7BrYY2v-CXimhR1OL_HL-9">
          <mxGeometry y="26" width="170" height="30" as="geometry" />
        </mxCell>
        <mxCell id="7BrYY2v-CXimhR1OL_HL-116" value="- has occured: boolean" style="text;html=1;strokeColor=none;fillColor=none;align=left;verticalAlign=middle;whiteSpace=wrap;rounded=0;" vertex="1" parent="7BrYY2v-CXimhR1OL_HL-9">
          <mxGeometry y="56" width="170" height="30" as="geometry" />
        </mxCell>
        <mxCell id="7BrYY2v-CXimhR1OL_HL-175" style="edgeStyle=orthogonalEdgeStyle;rounded=0;orthogonalLoop=1;jettySize=auto;html=1;entryX=0.404;entryY=0.011;entryDx=0;entryDy=0;entryPerimeter=0;" edge="1" parent="1" source="7BrYY2v-CXimhR1OL_HL-10" target="7BrYY2v-CXimhR1OL_HL-21">
          <mxGeometry relative="1" as="geometry">
            <mxPoint x="-590" y="860" as="targetPoint" />
            <Array as="points">
              <mxPoint x="-621" y="930" />
            </Array>
          </mxGeometry>
        </mxCell>
        <mxCell id="7BrYY2v-CXimhR1OL_HL-176" value="1" style="edgeLabel;html=1;align=center;verticalAlign=middle;resizable=0;points=[];" vertex="1" connectable="0" parent="7BrYY2v-CXimhR1OL_HL-175">
          <mxGeometry x="-0.9441" y="1" relative="1" as="geometry">
            <mxPoint y="-15" as="offset" />
          </mxGeometry>
        </mxCell>
        <mxCell id="7BrYY2v-CXimhR1OL_HL-177" value="1" style="edgeLabel;html=1;align=center;verticalAlign=middle;resizable=0;points=[];" vertex="1" connectable="0" parent="7BrYY2v-CXimhR1OL_HL-175">
          <mxGeometry x="0.9342" y="-1" relative="1" as="geometry">
            <mxPoint x="12" as="offset" />
          </mxGeometry>
        </mxCell>
        <mxCell id="7BrYY2v-CXimhR1OL_HL-179" style="edgeStyle=orthogonalEdgeStyle;rounded=0;orthogonalLoop=1;jettySize=auto;html=1;entryX=0.5;entryY=0;entryDx=0;entryDy=0;" edge="1" parent="1" source="7BrYY2v-CXimhR1OL_HL-10" target="7BrYY2v-CXimhR1OL_HL-124">
          <mxGeometry relative="1" as="geometry">
            <Array as="points">
              <mxPoint x="-40" y="920" />
            </Array>
          </mxGeometry>
        </mxCell>
        <mxCell id="7BrYY2v-CXimhR1OL_HL-180" value="*" style="edgeLabel;html=1;align=center;verticalAlign=middle;resizable=0;points=[];" vertex="1" connectable="0" parent="7BrYY2v-CXimhR1OL_HL-179">
          <mxGeometry x="-0.8587" relative="1" as="geometry">
            <mxPoint y="-11" as="offset" />
          </mxGeometry>
        </mxCell>
        <mxCell id="7BrYY2v-CXimhR1OL_HL-181" value="*" style="edgeLabel;html=1;align=center;verticalAlign=middle;resizable=0;points=[];" vertex="1" connectable="0" parent="7BrYY2v-CXimhR1OL_HL-179">
          <mxGeometry x="0.8333" y="-2" relative="1" as="geometry">
            <mxPoint x="22" y="16" as="offset" />
          </mxGeometry>
        </mxCell>
        <mxCell id="7BrYY2v-CXimhR1OL_HL-10" value="Pick Up Location" style="swimlane;fontStyle=0;childLayout=stackLayout;horizontal=1;startSize=26;fillColor=#66B2FF;horizontalStack=0;resizeParent=1;resizeParentMax=0;resizeLast=0;collapsible=1;marginBottom=0;whiteSpace=wrap;html=1;strokeColor=#000000;gradientColor=none;swimlaneFillColor=#66B2FF;" vertex="1" parent="1">
          <mxGeometry x="-370" y="800" width="175" height="176" as="geometry" />
        </mxCell>
        <mxCell id="7BrYY2v-CXimhR1OL_HL-83" value="- code: string" style="text;html=1;strokeColor=none;fillColor=none;align=left;verticalAlign=middle;whiteSpace=wrap;rounded=0;" vertex="1" parent="7BrYY2v-CXimhR1OL_HL-10">
          <mxGeometry y="26" width="175" height="30" as="geometry" />
        </mxCell>
        <mxCell id="7BrYY2v-CXimhR1OL_HL-84" value="- designation: string" style="text;html=1;strokeColor=none;fillColor=none;align=left;verticalAlign=middle;whiteSpace=wrap;rounded=0;" vertex="1" parent="7BrYY2v-CXimhR1OL_HL-10">
          <mxGeometry y="56" width="175" height="30" as="geometry" />
        </mxCell>
        <mxCell id="7BrYY2v-CXimhR1OL_HL-85" value="- description: string" style="text;html=1;strokeColor=none;fillColor=none;align=left;verticalAlign=middle;whiteSpace=wrap;rounded=0;" vertex="1" parent="7BrYY2v-CXimhR1OL_HL-10">
          <mxGeometry y="86" width="175" height="30" as="geometry" />
        </mxCell>
        <mxCell id="7BrYY2v-CXimhR1OL_HL-100" value="- open hour: date" style="text;html=1;strokeColor=none;fillColor=none;align=left;verticalAlign=middle;whiteSpace=wrap;rounded=0;" vertex="1" parent="7BrYY2v-CXimhR1OL_HL-10">
          <mxGeometry y="116" width="175" height="30" as="geometry" />
        </mxCell>
        <mxCell id="7BrYY2v-CXimhR1OL_HL-101" value="- close hour: date" style="text;html=1;strokeColor=none;fillColor=none;align=left;verticalAlign=middle;whiteSpace=wrap;rounded=0;" vertex="1" parent="7BrYY2v-CXimhR1OL_HL-10">
          <mxGeometry y="146" width="175" height="30" as="geometry" />
        </mxCell>
        <mxCell id="7BrYY2v-CXimhR1OL_HL-11" value="Parish" style="swimlane;fontStyle=0;childLayout=stackLayout;horizontal=1;startSize=26;fillColor=#66B2FF;horizontalStack=0;resizeParent=1;resizeParentMax=0;resizeLast=0;collapsible=1;marginBottom=0;whiteSpace=wrap;html=1;strokeColor=#000000;gradientColor=none;swimlaneFillColor=#66B2FF;" vertex="1" parent="1">
          <mxGeometry x="-950" y="1264" width="130" height="86" as="geometry" />
        </mxCell>
        <mxCell id="7BrYY2v-CXimhR1OL_HL-75" value="- code: string" style="text;html=1;strokeColor=none;fillColor=none;align=left;verticalAlign=middle;whiteSpace=wrap;rounded=0;" vertex="1" parent="7BrYY2v-CXimhR1OL_HL-11">
          <mxGeometry y="26" width="130" height="30" as="geometry" />
        </mxCell>
        <mxCell id="7BrYY2v-CXimhR1OL_HL-76" value="- designation: string" style="text;html=1;strokeColor=none;fillColor=none;align=left;verticalAlign=middle;whiteSpace=wrap;rounded=0;" vertex="1" parent="7BrYY2v-CXimhR1OL_HL-11">
          <mxGeometry y="56" width="130" height="30" as="geometry" />
        </mxCell>
        <mxCell id="7BrYY2v-CXimhR1OL_HL-14" value="Â«EnumerationÂ»&lt;br&gt;Donation State" style="swimlane;fontStyle=0;childLayout=stackLayout;horizontal=1;startSize=40;fillColor=#66B2FF;horizontalStack=0;resizeParent=1;resizeParentMax=0;resizeLast=0;collapsible=1;marginBottom=0;whiteSpace=wrap;html=1;strokeColor=#000000;gradientColor=none;swimlaneFillColor=#66B2FF;" vertex="1" parent="1">
          <mxGeometry x="510" y="1550" width="170" height="280" as="geometry">
            <mxRectangle x="30" y="60" width="140" height="30" as="alternateBounds" />
          </mxGeometry>
        </mxCell>
        <mxCell id="7BrYY2v-CXimhR1OL_HL-15" value="- REQUESTED" style="text;html=1;strokeColor=none;fillColor=none;align=left;verticalAlign=middle;whiteSpace=wrap;rounded=0;" vertex="1" parent="7BrYY2v-CXimhR1OL_HL-14">
          <mxGeometry y="40" width="170" height="30" as="geometry" />
        </mxCell>
        <mxCell id="7BrYY2v-CXimhR1OL_HL-16" value="- ACCEPTED" style="text;html=1;strokeColor=none;fillColor=none;align=left;verticalAlign=middle;whiteSpace=wrap;rounded=0;" vertex="1" parent="7BrYY2v-CXimhR1OL_HL-14">
          <mxGeometry y="70" width="170" height="30" as="geometry" />
        </mxCell>
        <mxCell id="7BrYY2v-CXimhR1OL_HL-17" value="- REJECTED" style="text;html=1;strokeColor=none;fillColor=none;align=left;verticalAlign=middle;whiteSpace=wrap;rounded=0;" vertex="1" parent="7BrYY2v-CXimhR1OL_HL-14">
          <mxGeometry y="100" width="170" height="30" as="geometry" />
        </mxCell>
        <mxCell id="7BrYY2v-CXimhR1OL_HL-18" value="- ONGOING" style="text;html=1;strokeColor=none;fillColor=none;align=left;verticalAlign=middle;whiteSpace=wrap;rounded=0;" vertex="1" parent="7BrYY2v-CXimhR1OL_HL-14">
          <mxGeometry y="130" width="170" height="30" as="geometry" />
        </mxCell>
        <mxCell id="7BrYY2v-CXimhR1OL_HL-19" value="- FINISHED" style="text;html=1;strokeColor=none;fillColor=none;align=left;verticalAlign=middle;whiteSpace=wrap;rounded=0;" vertex="1" parent="7BrYY2v-CXimhR1OL_HL-14">
          <mxGeometry y="160" width="170" height="30" as="geometry" />
        </mxCell>
        <mxCell id="7BrYY2v-CXimhR1OL_HL-20" value="- CANCELED" style="text;html=1;strokeColor=none;fillColor=none;align=left;verticalAlign=middle;whiteSpace=wrap;rounded=0;" vertex="1" parent="7BrYY2v-CXimhR1OL_HL-14">
          <mxGeometry y="190" width="170" height="30" as="geometry" />
        </mxCell>
        <mxCell id="7BrYY2v-CXimhR1OL_HL-115" value="- EXPIRED" style="text;html=1;strokeColor=none;fillColor=none;align=left;verticalAlign=middle;whiteSpace=wrap;rounded=0;" vertex="1" parent="7BrYY2v-CXimhR1OL_HL-14">
          <mxGeometry y="220" width="170" height="30" as="geometry" />
        </mxCell>
        <mxCell id="7BrYY2v-CXimhR1OL_HL-201" value="- CREATED" style="text;html=1;strokeColor=none;fillColor=none;align=left;verticalAlign=middle;whiteSpace=wrap;rounded=0;" vertex="1" parent="7BrYY2v-CXimhR1OL_HL-14">
          <mxGeometry y="250" width="170" height="30" as="geometry" />
        </mxCell>
        <mxCell id="7BrYY2v-CXimhR1OL_HL-165" style="edgeStyle=orthogonalEdgeStyle;rounded=0;orthogonalLoop=1;jettySize=auto;html=1;entryX=1;entryY=0.75;entryDx=0;entryDy=0;exitX=0;exitY=1;exitDx=0;exitDy=0;" edge="1" parent="1" source="7BrYY2v-CXimhR1OL_HL-40" target="7BrYY2v-CXimhR1OL_HL-75">
          <mxGeometry relative="1" as="geometry">
            <Array as="points">
              <mxPoint x="-750" y="1443" />
              <mxPoint x="-750" y="1313" />
            </Array>
          </mxGeometry>
        </mxCell>
        <mxCell id="7BrYY2v-CXimhR1OL_HL-166" value="*" style="edgeLabel;html=1;align=center;verticalAlign=middle;resizable=0;points=[];" vertex="1" connectable="0" parent="7BrYY2v-CXimhR1OL_HL-165">
          <mxGeometry x="-0.8718" y="3" relative="1" as="geometry">
            <mxPoint x="6" y="14" as="offset" />
          </mxGeometry>
        </mxCell>
        <mxCell id="7BrYY2v-CXimhR1OL_HL-167" value="1" style="edgeLabel;html=1;align=center;verticalAlign=middle;resizable=0;points=[];" vertex="1" connectable="0" parent="7BrYY2v-CXimhR1OL_HL-165">
          <mxGeometry x="0.812" y="-1" relative="1" as="geometry">
            <mxPoint y="-12" as="offset" />
          </mxGeometry>
        </mxCell>
        <mxCell id="7BrYY2v-CXimhR1OL_HL-21" value="Address" style="swimlane;fontStyle=0;childLayout=stackLayout;horizontal=1;startSize=26;fillColor=#66B2FF;horizontalStack=0;resizeParent=1;resizeParentMax=0;resizeLast=0;collapsible=1;marginBottom=0;whiteSpace=wrap;html=1;strokeColor=#000000;gradientColor=none;swimlaneFillColor=#66B2FF;" vertex="1" parent="1">
          <mxGeometry x="-690" y="1357" width="170" height="146" as="geometry" />
        </mxCell>
        <mxCell id="7BrYY2v-CXimhR1OL_HL-39" value="- street: string" style="text;html=1;strokeColor=none;fillColor=none;align=left;verticalAlign=middle;whiteSpace=wrap;rounded=0;" vertex="1" parent="7BrYY2v-CXimhR1OL_HL-21">
          <mxGeometry y="26" width="170" height="30" as="geometry" />
        </mxCell>
        <mxCell id="7BrYY2v-CXimhR1OL_HL-40" value="- door number: int" style="text;html=1;strokeColor=none;fillColor=none;align=left;verticalAlign=middle;whiteSpace=wrap;rounded=0;" vertex="1" parent="7BrYY2v-CXimhR1OL_HL-21">
          <mxGeometry y="56" width="170" height="30" as="geometry" />
        </mxCell>
        <mxCell id="7BrYY2v-CXimhR1OL_HL-42" value="- floor: string" style="text;html=1;strokeColor=none;fillColor=none;align=left;verticalAlign=middle;whiteSpace=wrap;rounded=0;" vertex="1" parent="7BrYY2v-CXimhR1OL_HL-21">
          <mxGeometry y="86" width="170" height="30" as="geometry" />
        </mxCell>
        <mxCell id="7BrYY2v-CXimhR1OL_HL-43" value="- zip code: string" style="text;html=1;strokeColor=none;fillColor=none;align=left;verticalAlign=middle;whiteSpace=wrap;rounded=0;" vertex="1" parent="7BrYY2v-CXimhR1OL_HL-21">
          <mxGeometry y="116" width="170" height="30" as="geometry" />
        </mxCell>
        <mxCell id="7BrYY2v-CXimhR1OL_HL-22" value="Donation Message" style="swimlane;fontStyle=0;childLayout=stackLayout;horizontal=1;startSize=26;fillColor=#66B2FF;horizontalStack=0;resizeParent=1;resizeParentMax=0;resizeLast=0;collapsible=1;marginBottom=0;whiteSpace=wrap;html=1;strokeColor=#000000;gradientColor=none;swimlaneFillColor=#66B2FF;" vertex="1" parent="1">
          <mxGeometry x="390" y="1083" width="150" height="86" as="geometry" />
        </mxCell>
        <mxCell id="7BrYY2v-CXimhR1OL_HL-94" value="- content: string" style="text;html=1;strokeColor=none;fillColor=none;align=left;verticalAlign=middle;whiteSpace=wrap;rounded=0;" vertex="1" parent="7BrYY2v-CXimhR1OL_HL-22">
          <mxGeometry y="26" width="150" height="30" as="geometry" />
        </mxCell>
        <mxCell id="7BrYY2v-CXimhR1OL_HL-95" value="- message date: date" style="text;html=1;strokeColor=none;fillColor=none;align=left;verticalAlign=middle;whiteSpace=wrap;rounded=0;" vertex="1" parent="7BrYY2v-CXimhR1OL_HL-22">
          <mxGeometry y="56" width="150" height="30" as="geometry" />
        </mxCell>
        <mxCell id="7BrYY2v-CXimhR1OL_HL-23" value="Product Image" style="swimlane;fontStyle=0;childLayout=stackLayout;horizontal=1;startSize=26;fillColor=#66B2FF;horizontalStack=0;resizeParent=1;resizeParentMax=0;resizeLast=0;collapsible=1;marginBottom=0;whiteSpace=wrap;html=1;strokeColor=#000000;gradientColor=none;swimlaneFillColor=#66B2FF;" vertex="1" parent="1">
          <mxGeometry x="925" y="1270" width="160" height="146" as="geometry" />
        </mxCell>
        <mxCell id="7BrYY2v-CXimhR1OL_HL-86" value="- path: string" style="text;html=1;strokeColor=none;fillColor=none;align=left;verticalAlign=middle;whiteSpace=wrap;rounded=0;" vertex="1" parent="7BrYY2v-CXimhR1OL_HL-23">
          <mxGeometry y="26" width="160" height="30" as="geometry" />
        </mxCell>
        <mxCell id="7BrYY2v-CXimhR1OL_HL-87" value="- file name: string" style="text;html=1;strokeColor=none;fillColor=none;align=left;verticalAlign=middle;whiteSpace=wrap;rounded=0;" vertex="1" parent="7BrYY2v-CXimhR1OL_HL-23">
          <mxGeometry y="56" width="160" height="30" as="geometry" />
        </mxCell>
        <mxCell id="7BrYY2v-CXimhR1OL_HL-88" value="- extension: string" style="text;html=1;strokeColor=none;fillColor=none;align=left;verticalAlign=middle;whiteSpace=wrap;rounded=0;" vertex="1" parent="7BrYY2v-CXimhR1OL_HL-23">
          <mxGeometry y="86" width="160" height="30" as="geometry" />
        </mxCell>
        <mxCell id="7BrYY2v-CXimhR1OL_HL-93" value="- size: double" style="text;html=1;strokeColor=none;fillColor=none;align=left;verticalAlign=middle;whiteSpace=wrap;rounded=0;" vertex="1" parent="7BrYY2v-CXimhR1OL_HL-23">
          <mxGeometry y="116" width="160" height="30" as="geometry" />
        </mxCell>
        <mxCell id="7BrYY2v-CXimhR1OL_HL-24" value="Category" style="swimlane;fontStyle=0;childLayout=stackLayout;horizontal=1;startSize=26;fillColor=#66B2FF;horizontalStack=0;resizeParent=1;resizeParentMax=0;resizeLast=0;collapsible=1;marginBottom=0;whiteSpace=wrap;html=1;strokeColor=#000000;gradientColor=none;swimlaneFillColor=#66B2FF;" vertex="1" parent="1">
          <mxGeometry x="190" y="850" width="160" height="116" as="geometry" />
        </mxCell>
        <mxCell id="7BrYY2v-CXimhR1OL_HL-97" value="- code: string" style="text;html=1;strokeColor=none;fillColor=none;align=left;verticalAlign=middle;whiteSpace=wrap;rounded=0;" vertex="1" parent="7BrYY2v-CXimhR1OL_HL-24">
          <mxGeometry y="26" width="160" height="30" as="geometry" />
        </mxCell>
        <mxCell id="7BrYY2v-CXimhR1OL_HL-98" value="- designation: string" style="text;html=1;strokeColor=none;fillColor=none;align=left;verticalAlign=middle;whiteSpace=wrap;rounded=0;" vertex="1" parent="7BrYY2v-CXimhR1OL_HL-24">
          <mxGeometry y="56" width="160" height="30" as="geometry" />
        </mxCell>
        <mxCell id="7BrYY2v-CXimhR1OL_HL-99" value="- description: string" style="text;html=1;strokeColor=none;fillColor=none;align=left;verticalAlign=middle;whiteSpace=wrap;rounded=0;" vertex="1" parent="7BrYY2v-CXimhR1OL_HL-24">
          <mxGeometry y="86" width="160" height="30" as="geometry" />
        </mxCell>
        <mxCell id="7BrYY2v-CXimhR1OL_HL-25" value="Organization Classification" style="swimlane;fontStyle=0;childLayout=stackLayout;horizontal=1;startSize=30;fillColor=#66B2FF;horizontalStack=0;resizeParent=1;resizeParentMax=0;resizeLast=0;collapsible=1;marginBottom=0;whiteSpace=wrap;html=1;strokeColor=#000000;gradientColor=none;swimlaneFillColor=#66B2FF;" vertex="1" parent="1">
          <mxGeometry x="-413" y="1070" width="160" height="120" as="geometry" />
        </mxCell>
        <mxCell id="7BrYY2v-CXimhR1OL_HL-44" value="- classification: int" style="text;html=1;strokeColor=none;fillColor=none;align=left;verticalAlign=middle;whiteSpace=wrap;rounded=0;" vertex="1" parent="7BrYY2v-CXimhR1OL_HL-25">
          <mxGeometry y="30" width="160" height="30" as="geometry" />
        </mxCell>
        <mxCell id="7BrYY2v-CXimhR1OL_HL-45" value="- feedback message: string" style="text;html=1;strokeColor=none;fillColor=none;align=left;verticalAlign=middle;whiteSpace=wrap;rounded=0;" vertex="1" parent="7BrYY2v-CXimhR1OL_HL-25">
          <mxGeometry y="60" width="160" height="30" as="geometry" />
        </mxCell>
        <mxCell id="7BrYY2v-CXimhR1OL_HL-46" value="- feedback date: date" style="text;html=1;strokeColor=none;fillColor=none;align=left;verticalAlign=middle;whiteSpace=wrap;rounded=0;" vertex="1" parent="7BrYY2v-CXimhR1OL_HL-25">
          <mxGeometry y="90" width="160" height="30" as="geometry" />
        </mxCell>
        <mxCell id="7BrYY2v-CXimhR1OL_HL-27" value="Person Reliability" style="swimlane;fontStyle=0;childLayout=stackLayout;horizontal=1;startSize=26;fillColor=#66B2FF;horizontalStack=0;resizeParent=1;resizeParentMax=0;resizeLast=0;collapsible=1;marginBottom=0;whiteSpace=wrap;html=1;strokeColor=#000000;gradientColor=none;swimlaneFillColor=#66B2FF;" vertex="1" parent="1">
          <mxGeometry x="-140" y="1740" width="190" height="86" as="geometry" />
        </mxCell>
        <mxCell id="7BrYY2v-CXimhR1OL_HL-53" value="- feedback message: string" style="text;html=1;strokeColor=none;fillColor=none;align=left;verticalAlign=middle;whiteSpace=wrap;rounded=0;" vertex="1" parent="7BrYY2v-CXimhR1OL_HL-27">
          <mxGeometry y="26" width="190" height="30" as="geometry" />
        </mxCell>
        <mxCell id="7BrYY2v-CXimhR1OL_HL-54" value="- feedback date: date" style="text;html=1;strokeColor=none;fillColor=none;align=left;verticalAlign=middle;whiteSpace=wrap;rounded=0;" vertex="1" parent="7BrYY2v-CXimhR1OL_HL-27">
          <mxGeometry y="56" width="190" height="30" as="geometry" />
        </mxCell>
        <mxCell id="7BrYY2v-CXimhR1OL_HL-30" value="Suggestion" style="swimlane;fontStyle=0;childLayout=stackLayout;horizontal=1;startSize=26;fillColor=#66B2FF;horizontalStack=0;resizeParent=1;resizeParentMax=0;resizeLast=0;collapsible=1;marginBottom=0;whiteSpace=wrap;html=1;strokeColor=#000000;gradientColor=none;swimlaneFillColor=#66B2FF;" vertex="1" parent="1">
          <mxGeometry x="310" y="1620" width="130" height="56" as="geometry" />
        </mxCell>
        <mxCell id="7BrYY2v-CXimhR1OL_HL-73" value="- message: string" style="text;html=1;strokeColor=none;fillColor=none;align=left;verticalAlign=middle;whiteSpace=wrap;rounded=0;" vertex="1" parent="7BrYY2v-CXimhR1OL_HL-30">
          <mxGeometry y="26" width="130" height="30" as="geometry" />
        </mxCell>
        <mxCell id="7BrYY2v-CXimhR1OL_HL-55" value="Â«EnumerationÂ»&lt;br&gt;Reliability Level" style="swimlane;fontStyle=0;childLayout=stackLayout;horizontal=1;startSize=40;fillColor=#66B2FF;horizontalStack=0;resizeParent=1;resizeParentMax=0;resizeLast=0;collapsible=1;marginBottom=0;whiteSpace=wrap;html=1;strokeColor=#000000;gradientColor=none;swimlaneFillColor=#66B2FF;" vertex="1" parent="1">
          <mxGeometry x="-413" y="1503" width="160" height="190" as="geometry">
            <mxRectangle x="30" y="60" width="140" height="30" as="alternateBounds" />
          </mxGeometry>
        </mxCell>
        <mxCell id="7BrYY2v-CXimhR1OL_HL-56" value="- VERY RELIABLE" style="text;html=1;strokeColor=none;fillColor=none;align=left;verticalAlign=middle;whiteSpace=wrap;rounded=0;" vertex="1" parent="7BrYY2v-CXimhR1OL_HL-55">
          <mxGeometry y="40" width="160" height="30" as="geometry" />
        </mxCell>
        <mxCell id="7BrYY2v-CXimhR1OL_HL-57" value="- RELIABLE" style="text;html=1;strokeColor=none;fillColor=none;align=left;verticalAlign=middle;whiteSpace=wrap;rounded=0;" vertex="1" parent="7BrYY2v-CXimhR1OL_HL-55">
          <mxGeometry y="70" width="160" height="30" as="geometry" />
        </mxCell>
        <mxCell id="7BrYY2v-CXimhR1OL_HL-58" value="- NEUTRAL" style="text;html=1;strokeColor=none;fillColor=none;align=left;verticalAlign=middle;whiteSpace=wrap;rounded=0;" vertex="1" parent="7BrYY2v-CXimhR1OL_HL-55">
          <mxGeometry y="100" width="160" height="30" as="geometry" />
        </mxCell>
        <mxCell id="7BrYY2v-CXimhR1OL_HL-59" value="- UNRELIABLE" style="text;html=1;strokeColor=none;fillColor=none;align=left;verticalAlign=middle;whiteSpace=wrap;rounded=0;" vertex="1" parent="7BrYY2v-CXimhR1OL_HL-55">
          <mxGeometry y="130" width="160" height="30" as="geometry" />
        </mxCell>
        <mxCell id="7BrYY2v-CXimhR1OL_HL-60" value="- VERY UNRELIABLE" style="text;html=1;strokeColor=none;fillColor=none;align=left;verticalAlign=middle;whiteSpace=wrap;rounded=0;" vertex="1" parent="7BrYY2v-CXimhR1OL_HL-55">
          <mxGeometry y="160" width="160" height="30" as="geometry" />
        </mxCell>
        <mxCell id="7BrYY2v-CXimhR1OL_HL-77" value="Municipality" style="swimlane;fontStyle=0;childLayout=stackLayout;horizontal=1;startSize=26;fillColor=#66B2FF;horizontalStack=0;resizeParent=1;resizeParentMax=0;resizeLast=0;collapsible=1;marginBottom=0;whiteSpace=wrap;html=1;strokeColor=#000000;gradientColor=none;swimlaneFillColor=#66B2FF;" vertex="1" parent="1">
          <mxGeometry x="-950" y="1430" width="130" height="86" as="geometry" />
        </mxCell>
        <mxCell id="7BrYY2v-CXimhR1OL_HL-78" value="- code: string" style="text;html=1;strokeColor=none;fillColor=none;align=left;verticalAlign=middle;whiteSpace=wrap;rounded=0;" vertex="1" parent="7BrYY2v-CXimhR1OL_HL-77">
          <mxGeometry y="26" width="130" height="30" as="geometry" />
        </mxCell>
        <mxCell id="7BrYY2v-CXimhR1OL_HL-79" value="- designation: string" style="text;html=1;strokeColor=none;fillColor=none;align=left;verticalAlign=middle;whiteSpace=wrap;rounded=0;" vertex="1" parent="7BrYY2v-CXimhR1OL_HL-77">
          <mxGeometry y="56" width="130" height="30" as="geometry" />
        </mxCell>
        <mxCell id="7BrYY2v-CXimhR1OL_HL-80" value="District" style="swimlane;fontStyle=0;childLayout=stackLayout;horizontal=1;startSize=26;fillColor=#66B2FF;horizontalStack=0;resizeParent=1;resizeParentMax=0;resizeLast=0;collapsible=1;marginBottom=0;whiteSpace=wrap;html=1;strokeColor=#000000;gradientColor=none;swimlaneFillColor=#66B2FF;" vertex="1" parent="1">
          <mxGeometry x="-950" y="1590" width="130" height="86" as="geometry" />
        </mxCell>
        <mxCell id="7BrYY2v-CXimhR1OL_HL-81" value="- code: string" style="text;html=1;strokeColor=none;fillColor=none;align=left;verticalAlign=middle;whiteSpace=wrap;rounded=0;" vertex="1" parent="7BrYY2v-CXimhR1OL_HL-80">
          <mxGeometry y="26" width="130" height="30" as="geometry" />
        </mxCell>
        <mxCell id="7BrYY2v-CXimhR1OL_HL-82" value="- designation: string" style="text;html=1;strokeColor=none;fillColor=none;align=left;verticalAlign=middle;whiteSpace=wrap;rounded=0;" vertex="1" parent="7BrYY2v-CXimhR1OL_HL-80">
          <mxGeometry y="56" width="130" height="30" as="geometry" />
        </mxCell>
        <mxCell id="7BrYY2v-CXimhR1OL_HL-192" style="edgeStyle=orthogonalEdgeStyle;rounded=0;orthogonalLoop=1;jettySize=auto;html=1;entryX=1;entryY=0.25;entryDx=0;entryDy=0;" edge="1" parent="1" source="7BrYY2v-CXimhR1OL_HL-103" target="7BrYY2v-CXimhR1OL_HL-18">
          <mxGeometry relative="1" as="geometry">
            <Array as="points">
              <mxPoint x="860" y="1688" />
            </Array>
          </mxGeometry>
        </mxCell>
        <mxCell id="7BrYY2v-CXimhR1OL_HL-193" value="*" style="edgeLabel;html=1;align=center;verticalAlign=middle;resizable=0;points=[];" vertex="1" connectable="0" parent="7BrYY2v-CXimhR1OL_HL-192">
          <mxGeometry x="-0.9177" relative="1" as="geometry">
            <mxPoint x="10" as="offset" />
          </mxGeometry>
        </mxCell>
        <mxCell id="7BrYY2v-CXimhR1OL_HL-194" value="1" style="edgeLabel;html=1;align=center;verticalAlign=middle;resizable=0;points=[];" vertex="1" connectable="0" parent="7BrYY2v-CXimhR1OL_HL-192">
          <mxGeometry x="0.8027" y="3" relative="1" as="geometry">
            <mxPoint x="-14" y="10" as="offset" />
          </mxGeometry>
        </mxCell>
        <mxCell id="7BrYY2v-CXimhR1OL_HL-103" value="Donation Transaction" style="swimlane;fontStyle=0;childLayout=stackLayout;horizontal=1;startSize=26;fillColor=#66B2FF;horizontalStack=0;resizeParent=1;resizeParentMax=0;resizeLast=0;collapsible=1;marginBottom=0;whiteSpace=wrap;html=1;strokeColor=#000000;gradientColor=none;swimlaneFillColor=#66B2FF;" vertex="1" parent="1">
          <mxGeometry x="795" y="1470" width="130" height="56" as="geometry" />
        </mxCell>
        <mxCell id="7BrYY2v-CXimhR1OL_HL-131" style="edgeStyle=orthogonalEdgeStyle;rounded=0;orthogonalLoop=1;jettySize=auto;html=1;entryX=0.169;entryY=1.019;entryDx=0;entryDy=0;entryPerimeter=0;" edge="1" parent="1" source="7BrYY2v-CXimhR1OL_HL-120" target="7BrYY2v-CXimhR1OL_HL-62">
          <mxGeometry relative="1" as="geometry">
            <mxPoint x="220" y="1480" as="targetPoint" />
            <Array as="points">
              <mxPoint x="210" y="1580" />
              <mxPoint x="210" y="1480" />
            </Array>
          </mxGeometry>
        </mxCell>
        <mxCell id="7BrYY2v-CXimhR1OL_HL-132" value="1" style="edgeLabel;html=1;align=center;verticalAlign=middle;resizable=0;points=[];" vertex="1" connectable="0" parent="7BrYY2v-CXimhR1OL_HL-131">
          <mxGeometry x="-0.8614" y="-2" relative="1" as="geometry">
            <mxPoint x="-8" y="-19" as="offset" />
          </mxGeometry>
        </mxCell>
        <mxCell id="7BrYY2v-CXimhR1OL_HL-133" value="1" style="edgeLabel;html=1;align=center;verticalAlign=middle;resizable=0;points=[];" vertex="1" connectable="0" parent="7BrYY2v-CXimhR1OL_HL-131">
          <mxGeometry x="0.8946" y="2" relative="1" as="geometry">
            <mxPoint x="-8" as="offset" />
          </mxGeometry>
        </mxCell>
        <mxCell id="7BrYY2v-CXimhR1OL_HL-143" style="edgeStyle=orthogonalEdgeStyle;rounded=0;orthogonalLoop=1;jettySize=auto;html=1;" edge="1" parent="1" target="7BrYY2v-CXimhR1OL_HL-60">
          <mxGeometry relative="1" as="geometry">
            <mxPoint x="-140" y="1796" as="sourcePoint" />
            <mxPoint x="-330" y="1710" as="targetPoint" />
            <Array as="points">
              <mxPoint x="-330" y="1796" />
            </Array>
          </mxGeometry>
        </mxCell>
        <mxCell id="7BrYY2v-CXimhR1OL_HL-144" value="*" style="edgeLabel;html=1;align=center;verticalAlign=middle;resizable=0;points=[];" vertex="1" connectable="0" parent="7BrYY2v-CXimhR1OL_HL-143">
          <mxGeometry x="-0.6585" y="1" relative="1" as="geometry">
            <mxPoint x="35" y="-14" as="offset" />
          </mxGeometry>
        </mxCell>
        <mxCell id="7BrYY2v-CXimhR1OL_HL-145" value="1" style="edgeLabel;html=1;align=center;verticalAlign=middle;resizable=0;points=[];" vertex="1" connectable="0" parent="7BrYY2v-CXimhR1OL_HL-143">
          <mxGeometry x="0.6983" y="-1" relative="1" as="geometry">
            <mxPoint x="9" y="-25" as="offset" />
          </mxGeometry>
        </mxCell>
        <mxCell id="7BrYY2v-CXimhR1OL_HL-146" style="edgeStyle=orthogonalEdgeStyle;rounded=0;orthogonalLoop=1;jettySize=auto;html=1;entryX=1;entryY=0.25;entryDx=0;entryDy=0;" edge="1" parent="1" source="7BrYY2v-CXimhR1OL_HL-120" target="7BrYY2v-CXimhR1OL_HL-58">
          <mxGeometry relative="1" as="geometry">
            <Array as="points">
              <mxPoint x="-189" y="1610" />
            </Array>
          </mxGeometry>
        </mxCell>
        <mxCell id="7BrYY2v-CXimhR1OL_HL-147" value="*" style="edgeLabel;html=1;align=center;verticalAlign=middle;resizable=0;points=[];" vertex="1" connectable="0" parent="7BrYY2v-CXimhR1OL_HL-146">
          <mxGeometry x="-0.8227" y="2" relative="1" as="geometry">
            <mxPoint y="14" as="offset" />
          </mxGeometry>
        </mxCell>
        <mxCell id="7BrYY2v-CXimhR1OL_HL-148" value="1" style="edgeLabel;html=1;align=center;verticalAlign=middle;resizable=0;points=[];" vertex="1" connectable="0" parent="7BrYY2v-CXimhR1OL_HL-146">
          <mxGeometry x="0.6583" y="-2" relative="1" as="geometry">
            <mxPoint x="1" y="-8" as="offset" />
          </mxGeometry>
        </mxCell>
        <mxCell id="7BrYY2v-CXimhR1OL_HL-149" style="edgeStyle=orthogonalEdgeStyle;rounded=0;orthogonalLoop=1;jettySize=auto;html=1;" edge="1" parent="1" source="7BrYY2v-CXimhR1OL_HL-120" target="7BrYY2v-CXimhR1OL_HL-27">
          <mxGeometry relative="1" as="geometry">
            <Array as="points">
              <mxPoint x="-45" y="1680" />
              <mxPoint x="-45" y="1680" />
            </Array>
          </mxGeometry>
        </mxCell>
        <mxCell id="7BrYY2v-CXimhR1OL_HL-150" value="1" style="edgeLabel;html=1;align=center;verticalAlign=middle;resizable=0;points=[];" vertex="1" connectable="0" parent="7BrYY2v-CXimhR1OL_HL-149">
          <mxGeometry x="-0.7484" y="1" relative="1" as="geometry">
            <mxPoint x="14" as="offset" />
          </mxGeometry>
        </mxCell>
        <mxCell id="7BrYY2v-CXimhR1OL_HL-151" value="*" style="edgeLabel;html=1;align=center;verticalAlign=middle;resizable=0;points=[];" vertex="1" connectable="0" parent="7BrYY2v-CXimhR1OL_HL-149">
          <mxGeometry x="0.6944" y="-1" relative="1" as="geometry">
            <mxPoint x="-14" as="offset" />
          </mxGeometry>
        </mxCell>
        <mxCell id="7BrYY2v-CXimhR1OL_HL-160" style="edgeStyle=orthogonalEdgeStyle;rounded=0;orthogonalLoop=1;jettySize=auto;html=1;entryX=1;entryY=0.25;entryDx=0;entryDy=0;" edge="1" parent="1" source="7BrYY2v-CXimhR1OL_HL-120" target="7BrYY2v-CXimhR1OL_HL-43">
          <mxGeometry relative="1" as="geometry">
            <Array as="points">
              <mxPoint x="-40" y="1480" />
            </Array>
          </mxGeometry>
        </mxCell>
        <mxCell id="7BrYY2v-CXimhR1OL_HL-161" value="1" style="edgeLabel;html=1;align=center;verticalAlign=middle;resizable=0;points=[];" vertex="1" connectable="0" parent="7BrYY2v-CXimhR1OL_HL-160">
          <mxGeometry x="-0.9391" relative="1" as="geometry">
            <mxPoint x="10" y="6" as="offset" />
          </mxGeometry>
        </mxCell>
        <mxCell id="7BrYY2v-CXimhR1OL_HL-162" value="1..*" style="edgeLabel;html=1;align=center;verticalAlign=middle;resizable=0;points=[];" vertex="1" connectable="0" parent="7BrYY2v-CXimhR1OL_HL-160">
          <mxGeometry x="0.9471" y="-1" relative="1" as="geometry">
            <mxPoint x="16" y="-9" as="offset" />
          </mxGeometry>
        </mxCell>
        <mxCell id="7BrYY2v-CXimhR1OL_HL-120" value="Person" style="swimlane;fontStyle=0;childLayout=stackLayout;horizontal=1;startSize=26;fillColor=#66B2FF;horizontalStack=0;resizeParent=1;resizeParentMax=0;resizeLast=0;collapsible=1;marginBottom=0;whiteSpace=wrap;html=1;strokeColor=#000000;gradientColor=none;swimlaneFillColor=#66B2FF;" vertex="1" parent="1">
          <mxGeometry x="-125" y="1540" width="170" height="116" as="geometry" />
        </mxCell>
        <mxCell id="7BrYY2v-CXimhR1OL_HL-121" value="- name: string" style="text;html=1;strokeColor=none;fillColor=none;align=left;verticalAlign=middle;whiteSpace=wrap;rounded=0;" vertex="1" parent="7BrYY2v-CXimhR1OL_HL-120">
          <mxGeometry y="26" width="170" height="30" as="geometry" />
        </mxCell>
        <mxCell id="7BrYY2v-CXimhR1OL_HL-122" value="- email: string" style="text;html=1;strokeColor=none;fillColor=none;align=left;verticalAlign=middle;whiteSpace=wrap;rounded=0;" vertex="1" parent="7BrYY2v-CXimhR1OL_HL-120">
          <mxGeometry y="56" width="170" height="30" as="geometry" />
        </mxCell>
        <mxCell id="7BrYY2v-CXimhR1OL_HL-123" value="- phone number: int" style="text;html=1;strokeColor=none;fillColor=none;align=left;verticalAlign=middle;whiteSpace=wrap;rounded=0;" vertex="1" parent="7BrYY2v-CXimhR1OL_HL-120">
          <mxGeometry y="86" width="170" height="30" as="geometry" />
        </mxCell>
        <mxCell id="7BrYY2v-CXimhR1OL_HL-130" style="edgeStyle=orthogonalEdgeStyle;rounded=0;orthogonalLoop=1;jettySize=auto;html=1;entryX=0.25;entryY=0;entryDx=0;entryDy=0;" edge="1" parent="1" source="7BrYY2v-CXimhR1OL_HL-124" target="FMmyktnMpK6uSZ23YpWx-7">
          <mxGeometry relative="1" as="geometry" />
        </mxCell>
        <mxCell id="7BrYY2v-CXimhR1OL_HL-134" value="1" style="edgeLabel;html=1;align=center;verticalAlign=middle;resizable=0;points=[];" vertex="1" connectable="0" parent="7BrYY2v-CXimhR1OL_HL-130">
          <mxGeometry x="-0.9314" relative="1" as="geometry">
            <mxPoint x="4" y="-17" as="offset" />
          </mxGeometry>
        </mxCell>
        <mxCell id="7BrYY2v-CXimhR1OL_HL-135" value="0..1" style="edgeLabel;html=1;align=center;verticalAlign=middle;resizable=0;points=[];" vertex="1" connectable="0" parent="7BrYY2v-CXimhR1OL_HL-130">
          <mxGeometry x="0.8979" y="-3" relative="1" as="geometry">
            <mxPoint x="-22" y="-2" as="offset" />
          </mxGeometry>
        </mxCell>
        <mxCell id="7BrYY2v-CXimhR1OL_HL-153" style="edgeStyle=orthogonalEdgeStyle;rounded=0;orthogonalLoop=1;jettySize=auto;html=1;entryX=1.003;entryY=0.161;entryDx=0;entryDy=0;entryPerimeter=0;" edge="1" parent="1" source="7BrYY2v-CXimhR1OL_HL-124" target="7BrYY2v-CXimhR1OL_HL-5">
          <mxGeometry relative="1" as="geometry">
            <mxPoint x="-250" y="1250" as="targetPoint" />
            <Array as="points">
              <mxPoint x="-140" y="1251" />
              <mxPoint x="-140" y="1251" />
            </Array>
          </mxGeometry>
        </mxCell>
        <mxCell id="7BrYY2v-CXimhR1OL_HL-154" value="*" style="edgeLabel;html=1;align=center;verticalAlign=middle;resizable=0;points=[];" vertex="1" connectable="0" parent="7BrYY2v-CXimhR1OL_HL-153">
          <mxGeometry x="-0.7762" y="-2" relative="1" as="geometry">
            <mxPoint x="1" y="-8" as="offset" />
          </mxGeometry>
        </mxCell>
        <mxCell id="7BrYY2v-CXimhR1OL_HL-155" value="1" style="edgeLabel;html=1;align=center;verticalAlign=middle;resizable=0;points=[];" vertex="1" connectable="0" parent="7BrYY2v-CXimhR1OL_HL-153">
          <mxGeometry x="0.7052" relative="1" as="geometry">
            <mxPoint y="10" as="offset" />
          </mxGeometry>
        </mxCell>
        <mxCell id="7BrYY2v-CXimhR1OL_HL-156" style="edgeStyle=orthogonalEdgeStyle;rounded=0;orthogonalLoop=1;jettySize=auto;html=1;entryX=1;entryY=0.5;entryDx=0;entryDy=0;" edge="1" parent="1" source="7BrYY2v-CXimhR1OL_HL-124" target="7BrYY2v-CXimhR1OL_HL-45">
          <mxGeometry relative="1" as="geometry">
            <Array as="points">
              <mxPoint x="-150" y="1145" />
              <mxPoint x="-150" y="1145" />
            </Array>
          </mxGeometry>
        </mxCell>
        <mxCell id="7BrYY2v-CXimhR1OL_HL-157" value="1" style="edgeLabel;html=1;align=center;verticalAlign=middle;resizable=0;points=[];" vertex="1" connectable="0" parent="7BrYY2v-CXimhR1OL_HL-156">
          <mxGeometry x="-0.7548" relative="1" as="geometry">
            <mxPoint x="1" y="-9" as="offset" />
          </mxGeometry>
        </mxCell>
        <mxCell id="7BrYY2v-CXimhR1OL_HL-158" value="*" style="edgeLabel;html=1;align=center;verticalAlign=middle;resizable=0;points=[];" vertex="1" connectable="0" parent="7BrYY2v-CXimhR1OL_HL-156">
          <mxGeometry x="0.6447" y="-1" relative="1" as="geometry">
            <mxPoint y="16" as="offset" />
          </mxGeometry>
        </mxCell>
        <mxCell id="7BrYY2v-CXimhR1OL_HL-159" style="edgeStyle=orthogonalEdgeStyle;rounded=0;orthogonalLoop=1;jettySize=auto;html=1;entryX=0.75;entryY=0;entryDx=0;entryDy=0;" edge="1" parent="1" source="7BrYY2v-CXimhR1OL_HL-124" target="7BrYY2v-CXimhR1OL_HL-21">
          <mxGeometry relative="1" as="geometry">
            <Array as="points">
              <mxPoint x="-100" y="1040" />
              <mxPoint x="-562" y="1040" />
            </Array>
          </mxGeometry>
        </mxCell>
        <mxCell id="7BrYY2v-CXimhR1OL_HL-163" value="1" style="edgeLabel;html=1;align=center;verticalAlign=middle;resizable=0;points=[];" vertex="1" connectable="0" parent="7BrYY2v-CXimhR1OL_HL-159">
          <mxGeometry x="-0.9634" y="-2" relative="1" as="geometry">
            <mxPoint x="8" y="-4" as="offset" />
          </mxGeometry>
        </mxCell>
        <mxCell id="7BrYY2v-CXimhR1OL_HL-164" value="1..*" style="edgeLabel;html=1;align=center;verticalAlign=middle;resizable=0;points=[];" vertex="1" connectable="0" parent="7BrYY2v-CXimhR1OL_HL-159">
          <mxGeometry x="0.9506" y="-1" relative="1" as="geometry">
            <mxPoint x="-14" y="-3" as="offset" />
          </mxGeometry>
        </mxCell>
        <mxCell id="7BrYY2v-CXimhR1OL_HL-124" value="Organization" style="swimlane;fontStyle=0;childLayout=stackLayout;horizontal=1;startSize=26;fillColor=#66B2FF;horizontalStack=0;resizeParent=1;resizeParentMax=0;resizeLast=0;collapsible=1;marginBottom=0;whiteSpace=wrap;html=1;strokeColor=#000000;gradientColor=none;swimlaneFillColor=#66B2FF;" vertex="1" parent="1">
          <mxGeometry x="-125" y="1080" width="170" height="206" as="geometry" />
        </mxCell>
        <mxCell id="7BrYY2v-CXimhR1OL_HL-125" value="- designation: string" style="text;html=1;strokeColor=none;fillColor=none;align=left;verticalAlign=middle;whiteSpace=wrap;rounded=0;" vertex="1" parent="7BrYY2v-CXimhR1OL_HL-124">
          <mxGeometry y="26" width="170" height="30" as="geometry" />
        </mxCell>
        <mxCell id="7BrYY2v-CXimhR1OL_HL-126" value="- description: string" style="text;html=1;strokeColor=none;fillColor=none;align=left;verticalAlign=middle;whiteSpace=wrap;rounded=0;" vertex="1" parent="7BrYY2v-CXimhR1OL_HL-124">
          <mxGeometry y="56" width="170" height="30" as="geometry" />
        </mxCell>
        <mxCell id="7BrYY2v-CXimhR1OL_HL-127" value="- nif: string" style="text;html=1;strokeColor=none;fillColor=none;align=left;verticalAlign=middle;whiteSpace=wrap;rounded=0;" vertex="1" parent="7BrYY2v-CXimhR1OL_HL-124">
          <mxGeometry y="86" width="170" height="30" as="geometry" />
        </mxCell>
        <mxCell id="7BrYY2v-CXimhR1OL_HL-128" value="- phone number: int" style="text;html=1;strokeColor=none;fillColor=none;align=left;verticalAlign=middle;whiteSpace=wrap;rounded=0;" vertex="1" parent="7BrYY2v-CXimhR1OL_HL-124">
          <mxGeometry y="116" width="170" height="30" as="geometry" />
        </mxCell>
        <mxCell id="7BrYY2v-CXimhR1OL_HL-129" value="- email: string" style="text;html=1;strokeColor=none;fillColor=none;align=left;verticalAlign=middle;whiteSpace=wrap;rounded=0;" vertex="1" parent="7BrYY2v-CXimhR1OL_HL-124">
          <mxGeometry y="146" width="170" height="30" as="geometry" />
        </mxCell>
        <mxCell id="7BrYY2v-CXimhR1OL_HL-152" value="- classification: double" style="text;html=1;strokeColor=none;fillColor=none;align=left;verticalAlign=middle;whiteSpace=wrap;rounded=0;" vertex="1" parent="7BrYY2v-CXimhR1OL_HL-124">
          <mxGeometry y="176" width="170" height="30" as="geometry" />
        </mxCell>
        <mxCell id="7BrYY2v-CXimhR1OL_HL-136" value="Â«EnumerationÂ»&lt;br&gt;User Role" style="swimlane;fontStyle=0;childLayout=stackLayout;horizontal=1;startSize=40;fillColor=#66B2FF;horizontalStack=0;resizeParent=1;resizeParentMax=0;resizeLast=0;collapsible=1;marginBottom=0;whiteSpace=wrap;html=1;strokeColor=#000000;gradientColor=none;swimlaneFillColor=#66B2FF;" vertex="1" parent="1">
          <mxGeometry x="-125" y="1330" width="160" height="130" as="geometry">
            <mxRectangle x="30" y="60" width="140" height="30" as="alternateBounds" />
          </mxGeometry>
        </mxCell>
        <mxCell id="7BrYY2v-CXimhR1OL_HL-137" value="- PERSON" style="text;html=1;strokeColor=none;fillColor=none;align=left;verticalAlign=middle;whiteSpace=wrap;rounded=0;" vertex="1" parent="7BrYY2v-CXimhR1OL_HL-136">
          <mxGeometry y="40" width="160" height="30" as="geometry" />
        </mxCell>
        <mxCell id="7BrYY2v-CXimhR1OL_HL-138" value="- ORGANIZATION" style="text;html=1;strokeColor=none;fillColor=none;align=left;verticalAlign=middle;whiteSpace=wrap;rounded=0;" vertex="1" parent="7BrYY2v-CXimhR1OL_HL-136">
          <mxGeometry y="70" width="160" height="30" as="geometry" />
        </mxCell>
        <mxCell id="7BrYY2v-CXimhR1OL_HL-139" value="- ADMIN" style="text;html=1;strokeColor=none;fillColor=none;align=left;verticalAlign=middle;whiteSpace=wrap;rounded=0;" vertex="1" parent="7BrYY2v-CXimhR1OL_HL-136">
          <mxGeometry y="100" width="160" height="30" as="geometry" />
        </mxCell>
        <mxCell id="7BrYY2v-CXimhR1OL_HL-168" style="edgeStyle=orthogonalEdgeStyle;rounded=0;orthogonalLoop=1;jettySize=auto;html=1;entryX=0.5;entryY=0;entryDx=0;entryDy=0;" edge="1" parent="1" source="7BrYY2v-CXimhR1OL_HL-76" target="7BrYY2v-CXimhR1OL_HL-77">
          <mxGeometry relative="1" as="geometry" />
        </mxCell>
        <mxCell id="7BrYY2v-CXimhR1OL_HL-169" value="*" style="edgeLabel;html=1;align=center;verticalAlign=middle;resizable=0;points=[];" vertex="1" connectable="0" parent="7BrYY2v-CXimhR1OL_HL-168">
          <mxGeometry x="-0.6889" y="1" relative="1" as="geometry">
            <mxPoint x="-16" y="-3" as="offset" />
          </mxGeometry>
        </mxCell>
        <mxCell id="7BrYY2v-CXimhR1OL_HL-170" value="1" style="edgeLabel;html=1;align=center;verticalAlign=middle;resizable=0;points=[];" vertex="1" connectable="0" parent="7BrYY2v-CXimhR1OL_HL-168">
          <mxGeometry x="0.7556" relative="1" as="geometry">
            <mxPoint x="15" y="-10" as="offset" />
          </mxGeometry>
        </mxCell>
        <mxCell id="7BrYY2v-CXimhR1OL_HL-171" style="edgeStyle=orthogonalEdgeStyle;rounded=0;orthogonalLoop=1;jettySize=auto;html=1;" edge="1" parent="1" source="7BrYY2v-CXimhR1OL_HL-79" target="7BrYY2v-CXimhR1OL_HL-80">
          <mxGeometry relative="1" as="geometry" />
        </mxCell>
        <mxCell id="7BrYY2v-CXimhR1OL_HL-172" value="*" style="edgeLabel;html=1;align=center;verticalAlign=middle;resizable=0;points=[];" vertex="1" connectable="0" parent="7BrYY2v-CXimhR1OL_HL-171">
          <mxGeometry x="-0.7658" y="2" relative="1" as="geometry">
            <mxPoint x="-17" as="offset" />
          </mxGeometry>
        </mxCell>
        <mxCell id="7BrYY2v-CXimhR1OL_HL-174" value="1" style="edgeLabel;html=1;align=center;verticalAlign=middle;resizable=0;points=[];" vertex="1" connectable="0" parent="7BrYY2v-CXimhR1OL_HL-171">
          <mxGeometry x="0.7558" relative="1" as="geometry">
            <mxPoint x="15" y="-1" as="offset" />
          </mxGeometry>
        </mxCell>
        <mxCell id="7BrYY2v-CXimhR1OL_HL-189" style="edgeStyle=orthogonalEdgeStyle;rounded=0;orthogonalLoop=1;jettySize=auto;html=1;" edge="1" parent="1" source="7BrYY2v-CXimhR1OL_HL-118" target="7BrYY2v-CXimhR1OL_HL-14">
          <mxGeometry relative="1" as="geometry" />
        </mxCell>
        <mxCell id="7BrYY2v-CXimhR1OL_HL-190" value="*" style="edgeLabel;html=1;align=center;verticalAlign=middle;resizable=0;points=[];" vertex="1" connectable="0" parent="7BrYY2v-CXimhR1OL_HL-189">
          <mxGeometry x="-0.754" y="1" relative="1" as="geometry">
            <mxPoint x="9" y="3" as="offset" />
          </mxGeometry>
        </mxCell>
        <mxCell id="7BrYY2v-CXimhR1OL_HL-191" value="1" style="edgeLabel;html=1;align=center;verticalAlign=middle;resizable=0;points=[];" vertex="1" connectable="0" parent="7BrYY2v-CXimhR1OL_HL-189">
          <mxGeometry x="0.6944" relative="1" as="geometry">
            <mxPoint x="-15" as="offset" />
          </mxGeometry>
        </mxCell>
        <mxCell id="7BrYY2v-CXimhR1OL_HL-222" style="edgeStyle=orthogonalEdgeStyle;rounded=0;orthogonalLoop=1;jettySize=auto;html=1;" edge="1" parent="1">
          <mxGeometry relative="1" as="geometry">
            <mxPoint x="680" y="1370" as="sourcePoint" />
            <mxPoint x="925" y="1370" as="targetPoint" />
            <Array as="points">
              <mxPoint x="680" y="1370" />
            </Array>
          </mxGeometry>
        </mxCell>
        <mxCell id="7BrYY2v-CXimhR1OL_HL-223" value="1" style="edgeLabel;html=1;align=center;verticalAlign=middle;resizable=0;points=[];" vertex="1" connectable="0" parent="7BrYY2v-CXimhR1OL_HL-222">
          <mxGeometry x="-0.8729" relative="1" as="geometry">
            <mxPoint x="-6" y="13" as="offset" />
          </mxGeometry>
        </mxCell>
        <mxCell id="7BrYY2v-CXimhR1OL_HL-224" value="1..*" style="edgeLabel;html=1;align=center;verticalAlign=middle;resizable=0;points=[];" vertex="1" connectable="0" parent="7BrYY2v-CXimhR1OL_HL-222">
          <mxGeometry x="0.8239" y="3" relative="1" as="geometry">
            <mxPoint x="-4" y="-7" as="offset" />
          </mxGeometry>
        </mxCell>
      </root>
    </mxGraphModel>
  </diagram>
</mxfile>
